<svg xmlns="http://www.w3.org/2000/svg" viewBox="0 0 300 300" width="300" height="300">
  <defs>
    <linearGradient id="gMain" x1="18%" y1="8%" x2="82%" y2="92%">
      <stop offset="0%" stop-color="#BAC3FF"/>
      <stop offset="45%" stop-color="#8796FF"/>
      <stop offset="100%" stop-color="#5C71F0"/>
    </linearGradient>
  </defs>
  <path d="M 109.00 5.00 C 105.74 5.33, 102.62 6.67, 99.63 8.00 C 96.65 9.33, 93.69 10.90, 91.09 13.00 C 88.48 15.10, 86.27 18.03, 84.00 20.62 C 81.73 23.21, 79.69 25.91, 77.47 28.53 C 75.25 31.15, 72.94 33.73, 70.67 36.33 C 68.41 38.93, 66.14 41.53, 63.88 44.12 C 61.61 46.72, 59.34 49.32, 57.08 51.92 C 54.81 54.52, 52.55 57.12, 50.28 59.72 C 48.02 62.32, 45.75 64.92, 43.49 67.51 C 41.22 70.11, 38.84 72.66, 36.69 75.31 C 34.54 77.96, 32.39 80.61, 30.60 83.40 C 28.80 86.20, 27.19 89.06, 25.92 92.08 C 24.66 95.09, 23.32 98.21, 23.00 101.48 C 22.68 104.74, 23.33 108.41, 24.00 111.68 C 24.67 114.94, 25.83 117.99, 27.00 121.05 C 28.17 124.10, 29.67 127.02, 31.00 130.00 C 32.33 132.99, 33.56 136.02, 35.00 138.96 C 36.44 141.90, 38.14 144.73, 39.64 147.64 C 41.14 150.56, 42.44 153.56, 44.00 156.45 C 45.56 159.34, 47.50 162.08, 49.00 165.00 C 50.50 167.91, 51.56 171.01, 53.00 173.95 C 54.44 176.89, 56.14 179.72, 57.64 182.64 C 59.14 185.56, 60.56 188.51, 62.00 191.45 C 63.44 194.39, 64.55 197.46, 66.28 200.28 C 68.01 203.10, 70.13 205.96, 72.37 208.37 C 74.62 210.79, 76.91 213.32, 79.76 214.76 C 82.60 216.19, 86.21 216.99, 89.44 217.00 C 92.67 217.01, 96.24 216.34, 99.16 214.84 C 102.08 213.35, 104.65 210.53, 106.95 208.05 C 109.26 205.56, 111.16 202.71, 113.00 199.94 C 114.84 197.16, 116.32 194.24, 118.00 191.40 C 119.68 188.56, 121.35 185.71, 123.10 182.90 C 124.85 180.08, 126.69 177.31, 128.48 174.52 C 130.28 171.72, 132.19 168.98, 133.87 166.13 C 135.54 163.29, 136.87 160.30, 138.54 157.46 C 140.22 154.61, 141.85 151.65, 143.93 149.07 C 146.01 146.50, 148.21 143.18, 151.02 142.00 C 153.83 140.82, 158.03 140.72, 160.81 142.00 C 163.58 143.28, 165.63 146.98, 167.66 149.66 C 169.69 152.34, 171.44 155.17, 173.00 158.06 C 174.56 160.95, 175.56 164.07, 177.01 167.01 C 178.46 169.95, 180.19 172.77, 181.69 175.69 C 183.18 178.60, 184.45 181.62, 186.00 184.51 C 187.55 187.41, 189.50 190.14, 191.00 193.05 C 192.50 195.97, 193.34 199.16, 195.01 202.01 C 196.67 204.85, 198.71 207.84, 201.00 210.13 C 203.29 212.43, 205.72 214.79, 208.77 215.77 C 211.82 216.75, 216.15 216.89, 219.29 216.00 C 222.42 215.11, 225.42 212.79, 227.59 210.41 C 229.75 208.04, 230.70 204.63, 232.26 201.74 C 233.82 198.85, 235.50 196.00, 236.94 193.06 C 238.38 190.12, 239.56 187.08, 240.91 184.09 C 242.25 181.11, 243.65 178.16, 245.00 175.18 C 246.35 172.20, 247.67 169.21, 249.00 166.22 C 250.33 163.24, 251.67 160.25, 253.00 157.27 C 254.33 154.28, 255.71 151.32, 257.00 148.31 C 258.29 145.31, 259.81 142.40, 260.75 139.25 C 261.68 136.10, 262.46 132.69, 262.59 129.41 C 262.73 126.12, 262.32 122.72, 261.56 119.56 C 260.79 116.39, 259.32 113.41, 258.00 110.42 C 256.68 107.43, 255.13 104.53, 253.62 101.62 C 252.11 98.71, 250.50 95.84, 248.95 92.95 C 247.39 90.05, 245.83 87.16, 244.27 84.27 C 242.71 81.38, 241.15 78.49, 239.60 75.60 C 238.04 72.70, 236.52 69.79, 234.92 66.92 C 233.32 64.04, 231.65 61.20, 230.00 58.35 C 228.35 55.49, 226.64 52.66, 225.00 49.80 C 223.36 46.94, 222.00 43.97, 220.19 41.19 C 218.37 38.40, 216.41 35.58, 214.10 33.10 C 211.78 30.62, 209.09 28.09, 206.30 26.30 C 203.51 24.51, 200.43 23.38, 197.33 22.33 C 194.23 21.28, 190.92 20.73, 187.68 20.00 C 184.45 19.27, 181.15 18.70, 177.93 17.93 C 174.71 17.16, 171.57 16.20, 168.38 15.38 C 165.18 14.55, 161.98 13.73, 158.75 13.00 C 155.51 12.27, 152.22 11.67, 148.96 11.00 C 145.70 10.33, 142.44 9.67, 139.18 9.00 C 135.92 8.33, 132.73 7.50, 129.40 7.00 C 126.07 6.50, 122.60 6.33, 119.20 6.00 C 115.80 5.67, 112.26 4.67, 109.00 5.00 Z" fill="url(#gMain)"/>
  <path d="M 157.00 167.00 C 154.56 167.00, 151.93 168.07, 149.68 169.32 C 147.44 170.56, 145.42 172.58, 143.54 174.46 C 141.66 176.34, 139.87 178.46, 138.40 180.60 C 136.92 182.75, 135.91 185.09, 134.67 187.33 C 133.42 189.58, 132.18 191.82, 130.94 194.06 C 129.69 196.31, 128.45 198.55, 127.21 200.79 C 125.96 203.04, 124.68 205.26, 123.48 207.52 C 122.28 209.78, 121.24 212.12, 120.00 214.36 C 118.76 216.60, 117.18 218.71, 116.02 220.98 C 114.85 223.26, 114.16 225.73, 112.99 228.01 C 111.82 230.28, 110.24 232.38, 109.00 234.63 C 107.76 236.87, 106.70 239.19, 105.53 241.47 C 104.37 243.74, 103.13 245.99, 102.00 248.28 C 100.87 250.57, 99.78 252.88, 98.78 255.22 C 97.78 257.56, 96.80 259.91, 96.00 262.34 C 95.20 264.77, 94.33 267.17, 94.00 269.79 C 93.67 272.41, 93.83 275.37, 94.00 278.06 C 94.17 280.75, 93.94 283.70, 95.00 285.92 C 96.06 288.14, 98.32 289.97, 100.38 291.38 C 102.45 292.80, 104.90 293.80, 107.41 294.41 C 109.92 295.01, 112.72 294.90, 115.44 295.00 C 118.15 295.10, 121.02 295.17, 123.71 295.00 C 126.40 294.83, 128.95 294.33, 131.57 294.00 C 134.19 293.67, 136.81 293.33, 139.43 293.00 C 142.05 292.67, 144.67 292.33, 147.29 292.00 C 149.91 291.67, 152.53 291.33, 155.15 291.00 C 157.77 290.67, 160.39 290.33, 163.01 290.00 C 165.63 289.67, 168.25 289.33, 170.88 289.00 C 173.50 288.67, 176.12 288.33, 178.74 288.00 C 181.36 287.67, 184.05 287.50, 186.60 287.00 C 189.15 286.50, 191.63 285.83, 194.04 285.00 C 196.46 284.17, 198.90 283.18, 201.08 282.00 C 203.25 280.82, 205.45 279.72, 207.08 277.92 C 208.70 276.12, 209.84 273.53, 210.81 271.19 C 211.77 268.85, 212.68 266.42, 212.88 263.88 C 213.08 261.34, 212.54 258.50, 212.00 255.97 C 211.46 253.43, 210.55 251.05, 209.66 248.66 C 208.77 246.27, 207.75 243.94, 206.64 241.64 C 205.53 239.34, 204.13 237.16, 203.00 234.87 C 201.87 232.58, 201.03 230.17, 199.89 227.89 C 198.74 225.60, 197.30 223.44, 196.16 221.16 C 195.01 218.87, 194.13 216.48, 193.00 214.19 C 191.87 211.90, 190.62 209.66, 189.40 207.40 C 188.18 205.15, 186.91 202.92, 185.67 200.67 C 184.44 198.43, 183.13 196.21, 182.00 193.92 C 180.87 191.63, 180.05 189.21, 178.92 186.92 C 177.78 184.63, 176.55 182.38, 175.19 180.19 C 173.83 178.00, 172.57 175.57, 170.75 173.75 C 168.94 171.94, 166.61 170.44, 164.32 169.32 C 162.02 168.19, 159.44 167.00, 157.00 167.00 Z" fill="url(#gMain)"/>
</svg>